<svg xmlns="http://www.w3.org/2000/svg" width="760" height="760" viewBox="0 0 760 760" fill="none">
  <rect width="760" height="760" rx="40" fill="#102a43"/>
  <circle cx="602" cy="140" r="76" fill="#7ee4c9"/>
  <circle cx="154" cy="620" r="106" fill="#ff6b5f"/>
  <rect x="136" y="132" width="488" height="496" rx="48" fill="#ffffff"/>
  <rect x="194" y="210" width="224" height="28" rx="14" fill="#dff7f1"/>
  <rect x="194" y="272" width="372" height="18" rx="9" fill="#d8e2ea"/>
  <rect x="194" y="312" width="312" height="18" rx="9" fill="#d8e2ea"/>
  <rect x="194" y="384" width="372" height="74" rx="20" fill="#f6fbfa" stroke="#b9e9df" stroke-width="4"/>
  <rect x="194" y="482" width="250" height="58" rx="18" fill="#0f766e"/>
  <path d="M536 420c0 62-50 112-112 112" stroke="#ffd166" stroke-width="18" stroke-linecap="round"/>
  <path d="M492 182c50 0 90 40 90 90" stroke="#ff6b5f" stroke-width="18" stroke-linecap="round"/>
  <path d="M318 396v50M293 421h50" stroke="#0f766e" stroke-width="10" stroke-linecap="round"/>
</svg>
